PathFileType	4	(X/Y/Z)	C:/Users/beibeiliu/ov580/test_trc/User1\sequence.16_training_dense_left.trc
DataRate	CameraRate	NumFrames	NumMarkers	Units	OrigDataRate	OrigDataStartFrame	OrigNumFrames
120	120	22	19	mm	120	135	268
Frame#	Time	ThumbCMC			ThumbMCP			ThumbIP			ThumbTip			IndexMCP			IndexPIP			IndexTip			MiddleMCP			MiddlePIP			MiddleTip			RingMCP			RingPIP			RingTip			PinkyMCP			PinkyPIP			PinkyTip			BackHand1			BackHand2			BackHand3	
		X0	Y0	Z0	X1	Y1	Z1	X2	Y2	Z2	X3	Y3	Z3	X4	Y4	Z4	X5	Y5	Z5	X6	Y6	Z6	X7	Y7	Z7	X8	Y8	Z8	X9	Y9	Z9	X10	Y10	Z10	X11	Y11	Z11	X12	Y12	Z12	X13	Y13	Z13	X14	Y14	Z14	X15	Y15	Z15	X16	Y16	Z16	X17	Y17	Z17	X18	Y18	Z18	
134	1.11667	-274.662	108.199	27.1249	-275.325	123.735	1.21123	-281.703	138.886	-18.487	-280.498	156.354	-30.0986	-295.239	92.8866	-56.9995	-262.415	80.4446	-65.2772	-252.2	74.6415	-33.7871	-299.709	68.8205	-59.3364	-267.818	58.1936	-63.759	-249.806	63.9721	-25.9621	-307.348	43.1541	-51.6931	-272.434	41.0491	-58.9803	-258.378	46.3164	-26.1284	-326.223	23.215	-28.9764	-332.867	18.0787	-45.508	-347.257	12.5657	-61.7655	-323.347	57.078	6.59361	-317.43	61.6397	40.6669	-312.131	92.8049	20.7347	
135	1.125	-273.254	108.949	28.838	-270.728	124.975	4.36602	-278.812	140.407	-19.2911	-276.483	159.414	-28.4533	-290.834	91.1962	-60.272	-262.816	75.3834	-64.8108	-249.679	73.2828	-32.6469	-298.224	67.807	-59.0649	-265.902	60.0867	-64.0647	-248.641	58.8781	-23.6909	-303.292	47.104	-54.3965	-269.416	38.1921	-57.9414	-256.21	48.083	-28.5489	-321.743	26.8894	-25.883	-332.109	15.448	-44.5703	-346.62	9.53818	-59.7694	-321.989	59.2527	8.30968	-316.305	56.2674	39.8078	-309.774	92.0663	20.7433	
136	1.13333	-275.277	106.651	22.4781	-271.932	125.469	-0.802856	-275.12	140.325	-18.8335	-275.849	158.264	-31.2867	-286.315	88.6789	-61.8096	-258.828	73.1129	-66.267	-244.841	71.5929	-34.6699	-292.51	64.2367	-60.7211	-257.798	57.7553	-62.5509	-242.101	63.0087	-25.4317	-298.831	40.9634	-52.0244	-267.143	36.8111	-59.2668	-250.745	45.1558	-26.5063	-317.909	20.1732	-29.9418	-323.308	8.81066	-42.2963	-338.495	1.32484	-63.9236	-317.064	57.6883	8.67197	-313.938	56.2064	40.263	-309.03	88.5174	18.3012	
137	1.14167	-275.644	106.895	20.2667	-269.4	123.935	-1.80255	-275.544	135.381	-27.0993	-275.314	153.034	-39.6792	-283.299	84.1287	-61.2658	-249.33	73.768	-66.565	-236.932	76.3948	-33.8436	-286.693	58.8464	-58.443	-248.581	53.8881	-61.0005	-235.959	58.4188	-23.5744	-290.295	33.0789	-50.1979	-255.907	29.9931	-54.6	-242.403	46.2793	-24.272	-305.88	14.6441	-28.7102	-308.756	0.463314	-43.4223	-319.769	-7.58832	-59.2812	-313.962	53.0587	6.51067	-308.808	55.5665	39.6875	-307.313	88.9497	14.5207	
138	1.15	-273.792	107.995	18.6754	-269.096	120.964	-7.20347	-276.015	134.402	-35.3398	-274.689	148.829	-46.917	-272.787	76.5586	-65.1092	-239.272	66.2975	-63.2627	-231.904	77.2565	-29.3275	-273.025	48.3898	-61.0539	-237.358	50.0844	-56.3262	-228.446	60.9997	-21.0009	-277.749	28.8104	-49.3141	-241.95	30.5358	-50.7721	-232.678	42.1448	-20.6983	-291.677	8.93915	-30.0495	-290.318	-8.0611	-40.8518	-297.22	-18.5343	-56.2583	-309.752	45.4809	0.714433	-305.615	55.947	38.7076	-304.526	85.669	7.82705	
139	1.15833	-276.229	110.164	11.4561	-272.689	121.328	-14.6116	-275.964	126.096	-41.2036	-276.034	137.936	-54.5326	-261.076	72.4326	-66.7538	-227.431	67.3109	-60.7075	-225.525	74.8272	-28.4359	-258.25	41.0616	-59.519	-227.232	46.7038	-53.4942	-221.912	64.702	-18.1901	-260.063	23.5643	-47.1565	-225.73	29.7381	-41.4735	-224.825	49.6133	-14.7432	-276.987	4.85056	-22.2507	-270.92	-11.1648	-33.9583	-271.671	-30.2372	-51.6973	-300.229	43.8255	2.27447	-304.223	51.3606	30.9287	-300.97	79.2613	6.70962	
140	1.16667	-277.012	106.262	9.11122	-272.524	119.626	-15.665	-274.706	123.259	-44.0388	-276.124	135.204	-62.8289	-250.621	64.6726	-64.4238	-217.296	63.9027	-54.9031	-220.366	75.5336	-22.8539	-249.007	41.7523	-55.5274	-215.205	47.1145	-45.3217	-219.29	68.9284	-10.5963	-247.877	22.3473	-44.8228	-213.843	34.1406	-35.7962	-219.069	53.6328	-10.1249	-263.146	-0.126452	-20.888	-255.609	-14.6003	-30.3152	-254.28	-29.6251	-47.0834	-292.712	39.1314	-0.641347	-299.523	51.4187	32.9744	-299.201	77.7872	-1.02889	
141	1.175	-277.409	107.408	8.04195	-272.302	115.432	-18.3001	-275.233	122.443	-45.4133	-272.761	127.956	-62.8094	-245.005	66.9248	-63.115	-212.866	65.5828	-55.7731	-216.675	82.59	-21.5377	-239.73	39.1252	-52.3883	-205.969	55.3903	-39.8057	-214.413	73.1814	-8.17764	-234.53	19.4208	-40.0353	-206.763	33.13	-29.9363	-212.618	52.4419	-5.24384	-251.714	-4.2803	-17.9696	-244.685	-13.9192	-24.3007	-240.555	-35.3034	-42.1828	-285.53	34.9277	-4.22278	-296.996	46.0813	27.8264	-293.588	72.1069	-0.0780528	
142	1.18333	-278.724	108.407	9.30696	-274.236	114.691	-18.8608	-275.138	118.043	-47.0018	-273.321	123.409	-66.9089	-241.916	65.0747	-62.5515	-208.307	65.9674	-52.017	-213.855	80.7204	-21.2941	-231.722	42.6881	-51.1365	-202.231	54.1539	-36.8654	-215.861	73.7557	-3.13959	-230.817	23.295	-37.6715	-200.947	36.8271	-26.3296	-212.937	62.4267	-3.19904	-242.614	-3.72073	-13.272	-234.524	-12.3537	-22.986	-229.367	-33.3999	-32.8164	-281.538	34.6186	-1.16375	-293.652	42.435	29.4211	-292.689	68.8737	1.50953	
143	1.19167	-280.94	104.647	8.43101	-275.124	110.932	-18.6854	-277.422	115.327	-45.5849	-276.57	120.882	-67.1058	-240.64	65.7915	-61.1107	-208.203	69.7495	-53.4183	-215.273	85.6336	-21.7153	-227.54	40.5549	-49.2398	-200.609	58.1542	-34.7111	-215.762	79.5762	-5.3026	-226.981	23.7	-35.2081	-197.025	43.0399	-23.4183	-207.161	62.2169	-2.48147	-238.506	1.05674	-9.11597	-227.076	-10.2287	-20.9791	-218.711	-32.5581	-32.5529	-279.522	32.9985	-1.8866	-290.144	40.6867	32.265	-290.336	65.9954	2.80758	
144	1.2	-281.681	103.805	9.91635	-280.518	112.128	-19.6949	-281.559	114.172	-46.2423	-283.689	122.898	-68.232	-242.483	66.7948	-61.3184	-210.346	77.0497	-54.1283	-219.03	92.4153	-21.6272	-229.96	42.8023	-49.751	-201.851	60.487	-39.1207	-217.003	83.2762	-7.39073	-221.406	28.7335	-37.3124	-197.923	45.2268	-28.2186	-210.561	65.8865	0.65591	-234.253	5.59909	-12.6238	-219.452	-8.32866	-20.7795	-214.935	-24.5091	-30.4547	-276.905	32.9693	0.435549	-289.013	40.8366	33.4708	-290.599	65.8996	0.425036	
145	1.20833	-286.086	102.824	6.44316	-283.535	111.007	-18.6704	-286.257	113.191	-47.1362	-288.971	122.117	-66.1866	-241.324	69.4173	-62.5194	-213.178	78.5738	-55.0546	-219.527	92.8127	-23.8751	-231.496	45.0851	-49.6179	-203.794	63.6986	-39.778	-219.285	86.5099	-6.93269	-226.674	30.751	-37.7805	-198.33	49.924	-28.3818	-213.137	68.9584	-2.85088	-228.647	2.47233	-13.7098	-217.43	-5.02322	-19.9458	-209.874	-22.6576	-32.0234	-274.037	30.8565	3.12478	-287.8	38.3345	34.4548	-292.486	66.0293	3.39372	
146	1.21667	-285.429	98.9324	9.73227	-284.263	108.502	-17.9052	-291.906	116.946	-42.7253	-292.5	120.879	-63.183	-244.624	68.0941	-62.298	-217.282	81.6456	-58.1307	-225.642	96.0911	-21.4531	-234.44	48.0847	-53.2923	-205.607	66.7271	-42.3839	-217.46	86.3824	-10.6996	-223.677	31.6946	-40.6051	-198.474	54.959	-29.9989	-210.188	69.4858	-6.48216	-228.164	6.01355	-13.7897	-218.072	-2.32324	-23.9429	-209.322	-20.6181	-37.9563	-273.768	31.4566	3.35445	-286.594	37.6974	33.2269	-294.79	61.1824	4.56035	
147	1.225	-287.91	98.5556	8.07737	-289.254	110.808	-17.2271	-292.534	110.941	-43.2228	-300.043	123.006	-62.4938	-250.355	69.932	-63.9197	-219.463	80.6665	-58.2366	-224.489	94.1748	-25.5617	-234.138	45.7283	-52.2334	-208.295	66.147	-46.1333	-215.908	86.1967	-13.6487	-226.862	28.5635	-38.9938	-202.304	53.7231	-34.6365	-214.207	69.6624	-5.91124	-230.458	3.14851	-13.5629	-217.457	-5.56258	-27.5869	-206.942	-22.2393	-40.8907	-273.588	27.4474	1.73677	-287.782	40.3533	36.453	-295.614	64.8759	4.27546	
148	1.23333	-290.058	100.676	11.1293	-290.014	108.5	-17.6603	-294.906	111.655	-41.7619	-301.266	124.43	-60.4115	-253.883	65.7889	-62.4055	-221.395	74.7934	-57.7544	-226.108	89.1009	-22.9042	-241.067	45.7818	-54.5542	-211.351	64.6568	-47.0891	-217.272	81.9498	-11.5776	-229.791	25.6546	-39.8652	-205.517	48.6296	-36.4815	-218.129	69.4217	-10.6556	-237.739	2.14547	-15.5304	-223.695	-9.12953	-30.6851	-207.615	-22.2834	-46.963	-277.555	27.7667	1.48491	-291.916	41.6072	36.753	-297.656	62.703	4.39682	
149	1.24167	-287.277	99.5015	12.3963	-288.72	113.157	-13.8672	-296.188	114.923	-43.2857	-300.907	123.537	-62.1472	-254.021	64.1263	-64.3801	-224.972	68.2144	-59.3124	-227.999	87.8241	-25.7046	-248.567	42.9754	-54.3974	-214.992	55.9799	-48.8522	-221.43	80.3494	-12.7064	-239.769	24.8263	-43.2866	-210.345	42.5534	-36.8678	-216.813	60.0416	-11.0756	-249.984	0.571801	-15.7593	-235.028	-14.0692	-30.3407	-211.844	-15.7122	-51.6725	-284.629	27.2217	2.76618	-293.033	38.735	37.1721	-301.438	67.0302	5.12828	
150	1.25	-283.712	100.184	12.1059	-284.026	112.631	-15.6504	-290.125	119.394	-37.3715	-293.778	129.408	-57.5965	-262.392	62.6654	-62.7974	-227.755	67.6763	-62.4367	-226.172	78.7263	-27.9418	-252.814	38.0694	-54.779	-219.911	49.9835	-46.1108	-222.03	69.6202	-16.558	-248.843	23.0553	-46.6277	-218.328	35.0922	-38.7175	-223.053	53.9051	-12.4084	-265.082	-4.22818	-17.0528	-246.827	-13.8346	-38.0306	-219.778	-2.87156	-53.1949	-292.899	34.0589	5.48024	-297.65	43.9593	36.3805	-303.375	71.349	7.09861	
151	1.25833	-277.776	107.142	13.7067	-275.303	112.625	-11.2785	-283.307	123.987	-37.7565	-283.494	130.277	-57.0854	-268.912	65.37	-62.3118	-234.947	60.3955	-64.3446	-227.356	73.176	-30.2787	-265.525	39.1642	-54.109	-228.523	42.5735	-50.7853	-226.949	63.2393	-15.7788	-261.061	20.1375	-47.2083	-229.503	28.3095	-41.619	-227.147	44.5041	-15.437	-282.086	1.28324	-23.325	-261.866	-8.87826	-41.7191	-236.35	9.81124	-41.616	-302.375	36.7184	3.68524	-303.01	47.8717	37.7982	-302.023	74.1987	7.29041	
152	1.26667	-268.687	106.966	17.5304	-263.055	116.977	-4.4733	-269.539	129.113	-29.4686	-269.869	138.823	-48.8727	-270.141	71.5429	-63.0984	-239.211	61.3971	-65.7424	-227.789	67.459	-33.8806	-273.718	44.0597	-56.7732	-238.053	41.3461	-55.0325	-230.148	54.2287	-18.5225	-277.244	26.4619	-47.7765	-243.581	23.1449	-46.2036	-237.267	39.7315	-14.308	-296.956	6.50712	-24.1459	-274.419	5.05653	-43.3386	-258.432	23.8962	-24.4038	-306.859	47.5979	7.17806	-306.173	59.0338	38.9695	-299.617	83.6447	13.1311	
153	1.275	-260.928	104.298	20.9022	-254.188	119.78	-2.2771	-259.114	128.637	-26.797	-255.062	141.745	-42.8986	-274.899	75.6875	-59.3036	-241.886	60.0438	-65.2432	-232.596	63.229	-30.296	-277.912	52.411	-60.3223	-246.681	39.2905	-56.237	-233.608	52.043	-21.0104	-288.979	30.5695	-47.5047	-252.296	23.5472	-48.0555	-243.388	36.5257	-20.8362	-308.568	20.2039	-27.8842	-285.561	13.1777	-38.6278	-288.098	29.3213	-14.214	-311.697	54.225	4.4562	-306.592	62.529	42.4647	-296.185	90.3384	17.176	
154	1.28333	-253.992	102.658	22.9608	-244.619	118.899	-1.24666	-246.799	133.408	-25.2919	-243.853	141.665	-40.9488	-269.973	83.004	-62.1776	-247.949	59.3496	-63.3724	-235.902	59.1137	-31.7008	-284.487	58.1405	-57.301	-252.147	43.4189	-58.0587	-238.039	49.9943	-19.5432	-293.977	44.3954	-48.8794	-261.302	26.1543	-47.9431	-250.805	35.4935	-19.3081	-312.148	26.4187	-29.2674	-314.163	25.482	-37.7533	-321.911	27.3799	-31.5351	-311.312	66.1667	7.72042	-304.447	67.5934	44.5678	-289.428	95.8697	16.5248	
155	1.29167	-245.356	99.8556	27.2127	-238.504	110.141	-1.07045	-234.118	127.906	-20.7883	-227.42	143.917	-35.7066	-266.977	91.1575	-57.2321	-245.899	63.7296	-64.1525	-236.181	59.7156	-29.5551	-285.69	68.3949	-57.288	-254.246	46.5946	-56.0881	-243.961	47.1904	-20.9978	-297.443	53.6138	-50.4257	-271.251	30.7033	-52.5568	-256.266	37.3264	-21.4903	-323.403	41.2339	-30.5708	-330.662	35.5902	-38.0885	-346.268	40.6206	-38.611	-310.255	76.3686	9.36142	-302.731	76.0141	46.3774	-286.152	98.9477	23.2092	
